<mxfile host="Electron" agent="Mozilla/5.0 (Windows NT 10.0; Win64; x64) AppleWebKit/537.36 (KHTML, like Gecko) draw.io/26.0.3 Chrome/130.0.6723.137 Electron/33.2.1 Safari/537.36" version="26.0.3">
  <diagram name="Page-1" id="k9nQRyF4IQkoTlptOZB1">
    <mxGraphModel dx="1912" dy="1125" grid="1" gridSize="10" guides="1" tooltips="1" connect="1" arrows="1" fold="1" page="1" pageScale="1" pageWidth="827" pageHeight="1169" math="0" shadow="0">
      <root>
        <mxCell id="0" />
        <mxCell id="1" parent="0" />
        <mxCell id="cYdkkXX8m2xhBoEQVh9J-1" value="clients" style="shape=table;startSize=30;container=1;collapsible=0;childLayout=tableLayout;strokeColor=default;fontSize=16;movable=1;resizable=1;rotatable=1;deletable=1;editable=1;locked=0;connectable=1;rowLines=1;columnLines=1;fixedRows=0;resizeLast=0;resizeLastRow=0;arcSize=15;absoluteArcSize=0;noLabel=0;" parent="1" vertex="1">
          <mxGeometry x="72" y="290" width="296" height="210" as="geometry" />
        </mxCell>
        <mxCell id="cYdkkXX8m2xhBoEQVh9J-6" value="" style="shape=tableRow;horizontal=0;startSize=0;swimlaneHead=0;swimlaneBody=0;strokeColor=inherit;top=0;left=0;bottom=0;right=0;collapsible=0;dropTarget=0;fillColor=none;points=[[0,0.5],[1,0.5]];portConstraint=eastwest;fontSize=16;" parent="cYdkkXX8m2xhBoEQVh9J-1" vertex="1">
          <mxGeometry y="30" width="296" height="36" as="geometry" />
        </mxCell>
        <mxCell id="cYdkkXX8m2xhBoEQVh9J-7" value="clientID" style="shape=partialRectangle;html=1;whiteSpace=wrap;connectable=0;strokeColor=inherit;overflow=hidden;fillColor=none;top=0;left=0;bottom=0;right=0;pointerEvents=1;fontSize=16;" parent="cYdkkXX8m2xhBoEQVh9J-6" vertex="1">
          <mxGeometry width="148" height="36" as="geometry">
            <mxRectangle width="148" height="36" as="alternateBounds" />
          </mxGeometry>
        </mxCell>
        <mxCell id="cYdkkXX8m2xhBoEQVh9J-8" value="UUID" style="shape=partialRectangle;html=1;whiteSpace=wrap;connectable=0;strokeColor=inherit;overflow=hidden;fillColor=none;top=0;left=0;bottom=0;right=0;pointerEvents=1;fontSize=16;" parent="cYdkkXX8m2xhBoEQVh9J-6" vertex="1">
          <mxGeometry x="148" width="98" height="36" as="geometry">
            <mxRectangle width="98" height="36" as="alternateBounds" />
          </mxGeometry>
        </mxCell>
        <mxCell id="cYdkkXX8m2xhBoEQVh9J-9" value="K" style="shape=partialRectangle;html=1;whiteSpace=wrap;connectable=0;strokeColor=inherit;overflow=hidden;fillColor=none;top=0;left=0;bottom=0;right=0;pointerEvents=1;fontSize=16;" parent="cYdkkXX8m2xhBoEQVh9J-6" vertex="1">
          <mxGeometry x="246" width="50" height="36" as="geometry">
            <mxRectangle width="50" height="36" as="alternateBounds" />
          </mxGeometry>
        </mxCell>
        <mxCell id="cYdkkXX8m2xhBoEQVh9J-75" value="" style="shape=tableRow;horizontal=0;startSize=0;swimlaneHead=0;swimlaneBody=0;strokeColor=inherit;top=0;left=0;bottom=0;right=0;collapsible=0;dropTarget=0;fillColor=none;points=[[0,0.5],[1,0.5]];portConstraint=eastwest;fontSize=16;" parent="cYdkkXX8m2xhBoEQVh9J-1" vertex="1">
          <mxGeometry y="66" width="296" height="36" as="geometry" />
        </mxCell>
        <mxCell id="cYdkkXX8m2xhBoEQVh9J-76" value="clientType" style="shape=partialRectangle;html=1;whiteSpace=wrap;connectable=0;strokeColor=inherit;overflow=hidden;fillColor=none;top=0;left=0;bottom=0;right=0;pointerEvents=1;fontSize=16;" parent="cYdkkXX8m2xhBoEQVh9J-75" vertex="1">
          <mxGeometry width="148" height="36" as="geometry">
            <mxRectangle width="148" height="36" as="alternateBounds" />
          </mxGeometry>
        </mxCell>
        <mxCell id="cYdkkXX8m2xhBoEQVh9J-77" value="TEXT" style="shape=partialRectangle;html=1;whiteSpace=wrap;connectable=0;strokeColor=inherit;overflow=hidden;fillColor=none;top=0;left=0;bottom=0;right=0;pointerEvents=1;fontSize=16;" parent="cYdkkXX8m2xhBoEQVh9J-75" vertex="1">
          <mxGeometry x="148" width="98" height="36" as="geometry">
            <mxRectangle width="98" height="36" as="alternateBounds" />
          </mxGeometry>
        </mxCell>
        <mxCell id="cYdkkXX8m2xhBoEQVh9J-78" value="Câ†‘" style="shape=partialRectangle;html=1;whiteSpace=wrap;connectable=0;strokeColor=inherit;overflow=hidden;fillColor=none;top=0;left=0;bottom=0;right=0;pointerEvents=1;fontSize=16;" parent="cYdkkXX8m2xhBoEQVh9J-75" vertex="1">
          <mxGeometry x="246" width="50" height="36" as="geometry">
            <mxRectangle width="50" height="36" as="alternateBounds" />
          </mxGeometry>
        </mxCell>
        <mxCell id="cYdkkXX8m2xhBoEQVh9J-79" value="" style="shape=tableRow;horizontal=0;startSize=0;swimlaneHead=0;swimlaneBody=0;strokeColor=inherit;top=0;left=0;bottom=0;right=0;collapsible=0;dropTarget=0;fillColor=none;points=[[0,0.5],[1,0.5]];portConstraint=eastwest;fontSize=16;" parent="cYdkkXX8m2xhBoEQVh9J-1" vertex="1">
          <mxGeometry y="102" width="296" height="36" as="geometry" />
        </mxCell>
        <mxCell id="cYdkkXX8m2xhBoEQVh9J-80" value="emailAddress" style="shape=partialRectangle;html=1;whiteSpace=wrap;connectable=0;strokeColor=inherit;overflow=hidden;fillColor=none;top=0;left=0;bottom=0;right=0;pointerEvents=1;fontSize=16;" parent="cYdkkXX8m2xhBoEQVh9J-79" vertex="1">
          <mxGeometry width="148" height="36" as="geometry">
            <mxRectangle width="148" height="36" as="alternateBounds" />
          </mxGeometry>
        </mxCell>
        <mxCell id="cYdkkXX8m2xhBoEQVh9J-81" value="TEXT" style="shape=partialRectangle;html=1;whiteSpace=wrap;connectable=0;strokeColor=inherit;overflow=hidden;fillColor=none;top=0;left=0;bottom=0;right=0;pointerEvents=1;fontSize=16;" parent="cYdkkXX8m2xhBoEQVh9J-79" vertex="1">
          <mxGeometry x="148" width="98" height="36" as="geometry">
            <mxRectangle width="98" height="36" as="alternateBounds" />
          </mxGeometry>
        </mxCell>
        <mxCell id="cYdkkXX8m2xhBoEQVh9J-82" value="" style="shape=partialRectangle;html=1;whiteSpace=wrap;connectable=0;strokeColor=inherit;overflow=hidden;fillColor=none;top=0;left=0;bottom=0;right=0;pointerEvents=1;fontSize=16;" parent="cYdkkXX8m2xhBoEQVh9J-79" vertex="1">
          <mxGeometry x="246" width="50" height="36" as="geometry">
            <mxRectangle width="50" height="36" as="alternateBounds" />
          </mxGeometry>
        </mxCell>
        <mxCell id="cYdkkXX8m2xhBoEQVh9J-83" value="" style="shape=tableRow;horizontal=0;startSize=0;swimlaneHead=0;swimlaneBody=0;strokeColor=inherit;top=0;left=0;bottom=0;right=0;collapsible=0;dropTarget=0;fillColor=none;points=[[0,0.5],[1,0.5]];portConstraint=eastwest;fontSize=16;" parent="cYdkkXX8m2xhBoEQVh9J-1" vertex="1">
          <mxGeometry y="138" width="296" height="36" as="geometry" />
        </mxCell>
        <mxCell id="cYdkkXX8m2xhBoEQVh9J-84" value="firstName" style="shape=partialRectangle;html=1;whiteSpace=wrap;connectable=0;strokeColor=inherit;overflow=hidden;fillColor=none;top=0;left=0;bottom=0;right=0;pointerEvents=1;fontSize=16;" parent="cYdkkXX8m2xhBoEQVh9J-83" vertex="1">
          <mxGeometry width="148" height="36" as="geometry">
            <mxRectangle width="148" height="36" as="alternateBounds" />
          </mxGeometry>
        </mxCell>
        <mxCell id="cYdkkXX8m2xhBoEQVh9J-85" value="TEXT" style="shape=partialRectangle;html=1;whiteSpace=wrap;connectable=0;strokeColor=inherit;overflow=hidden;fillColor=none;top=0;left=0;bottom=0;right=0;pointerEvents=1;fontSize=16;" parent="cYdkkXX8m2xhBoEQVh9J-83" vertex="1">
          <mxGeometry x="148" width="98" height="36" as="geometry">
            <mxRectangle width="98" height="36" as="alternateBounds" />
          </mxGeometry>
        </mxCell>
        <mxCell id="cYdkkXX8m2xhBoEQVh9J-86" value="" style="shape=partialRectangle;html=1;whiteSpace=wrap;connectable=0;strokeColor=inherit;overflow=hidden;fillColor=none;top=0;left=0;bottom=0;right=0;pointerEvents=1;fontSize=16;" parent="cYdkkXX8m2xhBoEQVh9J-83" vertex="1">
          <mxGeometry x="246" width="50" height="36" as="geometry">
            <mxRectangle width="50" height="36" as="alternateBounds" />
          </mxGeometry>
        </mxCell>
        <mxCell id="cYdkkXX8m2xhBoEQVh9J-87" value="" style="shape=tableRow;horizontal=0;startSize=0;swimlaneHead=0;swimlaneBody=0;strokeColor=inherit;top=0;left=0;bottom=0;right=0;collapsible=0;dropTarget=0;fillColor=none;points=[[0,0.5],[1,0.5]];portConstraint=eastwest;fontSize=16;" parent="cYdkkXX8m2xhBoEQVh9J-1" vertex="1">
          <mxGeometry y="174" width="296" height="36" as="geometry" />
        </mxCell>
        <mxCell id="cYdkkXX8m2xhBoEQVh9J-88" value="surname" style="shape=partialRectangle;html=1;whiteSpace=wrap;connectable=0;strokeColor=inherit;overflow=hidden;fillColor=none;top=0;left=0;bottom=0;right=0;pointerEvents=1;fontSize=16;" parent="cYdkkXX8m2xhBoEQVh9J-87" vertex="1">
          <mxGeometry width="148" height="36" as="geometry">
            <mxRectangle width="148" height="36" as="alternateBounds" />
          </mxGeometry>
        </mxCell>
        <mxCell id="cYdkkXX8m2xhBoEQVh9J-89" value="TEXT" style="shape=partialRectangle;html=1;whiteSpace=wrap;connectable=0;strokeColor=inherit;overflow=hidden;fillColor=none;top=0;left=0;bottom=0;right=0;pointerEvents=1;fontSize=16;" parent="cYdkkXX8m2xhBoEQVh9J-87" vertex="1">
          <mxGeometry x="148" width="98" height="36" as="geometry">
            <mxRectangle width="98" height="36" as="alternateBounds" />
          </mxGeometry>
        </mxCell>
        <mxCell id="cYdkkXX8m2xhBoEQVh9J-90" value="" style="shape=partialRectangle;html=1;whiteSpace=wrap;connectable=0;strokeColor=inherit;overflow=hidden;fillColor=none;top=0;left=0;bottom=0;right=0;pointerEvents=1;fontSize=16;" parent="cYdkkXX8m2xhBoEQVh9J-87" vertex="1">
          <mxGeometry x="246" width="50" height="36" as="geometry">
            <mxRectangle width="50" height="36" as="alternateBounds" />
          </mxGeometry>
        </mxCell>
        <mxCell id="cYdkkXX8m2xhBoEQVh9J-32" value="" style="shape=tableRow;horizontal=0;startSize=0;swimlaneHead=0;swimlaneBody=0;strokeColor=inherit;top=0;left=0;bottom=0;right=0;collapsible=0;dropTarget=0;fillColor=none;points=[[0,0.5],[1,0.5]];portConstraint=eastwest;fontSize=16;" parent="1" vertex="1">
          <mxGeometry x="520" y="526" width="180" height="47" as="geometry" />
        </mxCell>
        <mxCell id="cYdkkXX8m2xhBoEQVh9J-34" value="" style="shape=partialRectangle;html=1;whiteSpace=wrap;connectable=0;strokeColor=inherit;overflow=hidden;fillColor=none;top=0;left=0;bottom=0;right=0;pointerEvents=1;fontSize=16;" parent="cYdkkXX8m2xhBoEQVh9J-32" vertex="1">
          <mxGeometry x="90" width="60" height="47" as="geometry">
            <mxRectangle width="60" height="47" as="alternateBounds" />
          </mxGeometry>
        </mxCell>
        <mxCell id="cYdkkXX8m2xhBoEQVh9J-35" value="" style="shape=partialRectangle;html=1;whiteSpace=wrap;connectable=0;strokeColor=inherit;overflow=hidden;fillColor=none;top=0;left=0;bottom=0;right=0;pointerEvents=1;fontSize=16;" parent="cYdkkXX8m2xhBoEQVh9J-32" vertex="1">
          <mxGeometry x="150" width="30" height="47" as="geometry">
            <mxRectangle width="30" height="47" as="alternateBounds" />
          </mxGeometry>
        </mxCell>
        <mxCell id="cYdkkXX8m2xhBoEQVh9J-91" value="vmachines" style="shape=table;startSize=30;container=1;collapsible=0;childLayout=tableLayout;strokeColor=default;fontSize=16;movable=1;resizable=1;rotatable=1;deletable=1;editable=1;locked=0;connectable=1;rowLines=1;columnLines=1;fixedRows=0;resizeLast=0;resizeLastRow=0;arcSize=15;absoluteArcSize=0;noLabel=0;" parent="1" vertex="1">
          <mxGeometry x="480" y="291" width="300" height="282" as="geometry" />
        </mxCell>
        <mxCell id="cYdkkXX8m2xhBoEQVh9J-92" value="" style="shape=tableRow;horizontal=0;startSize=0;swimlaneHead=0;swimlaneBody=0;strokeColor=inherit;top=0;left=0;bottom=0;right=0;collapsible=0;dropTarget=0;fillColor=none;points=[[0,0.5],[1,0.5]];portConstraint=eastwest;fontSize=16;" parent="cYdkkXX8m2xhBoEQVh9J-91" vertex="1">
          <mxGeometry y="30" width="300" height="36" as="geometry" />
        </mxCell>
        <mxCell id="cYdkkXX8m2xhBoEQVh9J-93" value="uuid" style="shape=partialRectangle;html=1;whiteSpace=wrap;connectable=0;strokeColor=inherit;overflow=hidden;fillColor=none;top=0;left=0;bottom=0;right=0;pointerEvents=1;fontSize=16;" parent="cYdkkXX8m2xhBoEQVh9J-92" vertex="1">
          <mxGeometry width="150" height="36" as="geometry">
            <mxRectangle width="150" height="36" as="alternateBounds" />
          </mxGeometry>
        </mxCell>
        <mxCell id="cYdkkXX8m2xhBoEQVh9J-94" value="UUID" style="shape=partialRectangle;html=1;whiteSpace=wrap;connectable=0;strokeColor=inherit;overflow=hidden;fillColor=none;top=0;left=0;bottom=0;right=0;pointerEvents=1;fontSize=16;" parent="cYdkkXX8m2xhBoEQVh9J-92" vertex="1">
          <mxGeometry x="150" width="100" height="36" as="geometry">
            <mxRectangle width="100" height="36" as="alternateBounds" />
          </mxGeometry>
        </mxCell>
        <mxCell id="cYdkkXX8m2xhBoEQVh9J-95" value="K" style="shape=partialRectangle;html=1;whiteSpace=wrap;connectable=0;strokeColor=inherit;overflow=hidden;fillColor=none;top=0;left=0;bottom=0;right=0;pointerEvents=1;fontSize=16;" parent="cYdkkXX8m2xhBoEQVh9J-92" vertex="1">
          <mxGeometry x="250" width="50" height="36" as="geometry">
            <mxRectangle width="50" height="36" as="alternateBounds" />
          </mxGeometry>
        </mxCell>
        <mxCell id="cYdkkXX8m2xhBoEQVh9J-96" value="" style="shape=tableRow;horizontal=0;startSize=0;swimlaneHead=0;swimlaneBody=0;strokeColor=inherit;top=0;left=0;bottom=0;right=0;collapsible=0;dropTarget=0;fillColor=none;points=[[0,0.5],[1,0.5]];portConstraint=eastwest;fontSize=16;" parent="cYdkkXX8m2xhBoEQVh9J-91" vertex="1">
          <mxGeometry y="66" width="300" height="36" as="geometry" />
        </mxCell>
        <mxCell id="cYdkkXX8m2xhBoEQVh9J-97" value="CPUNumber" style="shape=partialRectangle;html=1;whiteSpace=wrap;connectable=0;strokeColor=inherit;overflow=hidden;fillColor=none;top=0;left=0;bottom=0;right=0;pointerEvents=1;fontSize=16;" parent="cYdkkXX8m2xhBoEQVh9J-96" vertex="1">
          <mxGeometry width="150" height="36" as="geometry">
            <mxRectangle width="150" height="36" as="alternateBounds" />
          </mxGeometry>
        </mxCell>
        <mxCell id="cYdkkXX8m2xhBoEQVh9J-98" value="INT" style="shape=partialRectangle;html=1;whiteSpace=wrap;connectable=0;strokeColor=inherit;overflow=hidden;fillColor=none;top=0;left=0;bottom=0;right=0;pointerEvents=1;fontSize=16;" parent="cYdkkXX8m2xhBoEQVh9J-96" vertex="1">
          <mxGeometry x="150" width="100" height="36" as="geometry">
            <mxRectangle width="100" height="36" as="alternateBounds" />
          </mxGeometry>
        </mxCell>
        <mxCell id="cYdkkXX8m2xhBoEQVh9J-99" value="Câ†‘" style="shape=partialRectangle;html=1;whiteSpace=wrap;connectable=0;strokeColor=inherit;overflow=hidden;fillColor=none;top=0;left=0;bottom=0;right=0;pointerEvents=1;fontSize=16;" parent="cYdkkXX8m2xhBoEQVh9J-96" vertex="1">
          <mxGeometry x="250" width="50" height="36" as="geometry">
            <mxRectangle width="50" height="36" as="alternateBounds" />
          </mxGeometry>
        </mxCell>
        <mxCell id="cYdkkXX8m2xhBoEQVh9J-100" value="" style="shape=tableRow;horizontal=0;startSize=0;swimlaneHead=0;swimlaneBody=0;strokeColor=inherit;top=0;left=0;bottom=0;right=0;collapsible=0;dropTarget=0;fillColor=none;points=[[0,0.5],[1,0.5]];portConstraint=eastwest;fontSize=16;" parent="cYdkkXX8m2xhBoEQVh9J-91" vertex="1">
          <mxGeometry y="102" width="300" height="36" as="geometry" />
        </mxCell>
        <mxCell id="cYdkkXX8m2xhBoEQVh9J-101" value="ramSize" style="shape=partialRectangle;html=1;whiteSpace=wrap;connectable=0;strokeColor=inherit;overflow=hidden;fillColor=none;top=0;left=0;bottom=0;right=0;pointerEvents=1;fontSize=16;" parent="cYdkkXX8m2xhBoEQVh9J-100" vertex="1">
          <mxGeometry width="150" height="36" as="geometry">
            <mxRectangle width="150" height="36" as="alternateBounds" />
          </mxGeometry>
        </mxCell>
        <mxCell id="cYdkkXX8m2xhBoEQVh9J-102" value="TEXT" style="shape=partialRectangle;html=1;whiteSpace=wrap;connectable=0;strokeColor=inherit;overflow=hidden;fillColor=none;top=0;left=0;bottom=0;right=0;pointerEvents=1;fontSize=16;" parent="cYdkkXX8m2xhBoEQVh9J-100" vertex="1">
          <mxGeometry x="150" width="100" height="36" as="geometry">
            <mxRectangle width="100" height="36" as="alternateBounds" />
          </mxGeometry>
        </mxCell>
        <mxCell id="cYdkkXX8m2xhBoEQVh9J-103" value="" style="shape=partialRectangle;html=1;whiteSpace=wrap;connectable=0;strokeColor=inherit;overflow=hidden;fillColor=none;top=0;left=0;bottom=0;right=0;pointerEvents=1;fontSize=16;" parent="cYdkkXX8m2xhBoEQVh9J-100" vertex="1">
          <mxGeometry x="250" width="50" height="36" as="geometry">
            <mxRectangle width="50" height="36" as="alternateBounds" />
          </mxGeometry>
        </mxCell>
        <mxCell id="cYdkkXX8m2xhBoEQVh9J-104" value="" style="shape=tableRow;horizontal=0;startSize=0;swimlaneHead=0;swimlaneBody=0;strokeColor=inherit;top=0;left=0;bottom=0;right=0;collapsible=0;dropTarget=0;fillColor=none;points=[[0,0.5],[1,0.5]];portConstraint=eastwest;fontSize=16;" parent="cYdkkXX8m2xhBoEQVh9J-91" vertex="1">
          <mxGeometry y="138" width="300" height="36" as="geometry" />
        </mxCell>
        <mxCell id="cYdkkXX8m2xhBoEQVh9J-105" value="rented" style="shape=partialRectangle;html=1;whiteSpace=wrap;connectable=0;strokeColor=inherit;overflow=hidden;fillColor=none;top=0;left=0;bottom=0;right=0;pointerEvents=1;fontSize=16;" parent="cYdkkXX8m2xhBoEQVh9J-104" vertex="1">
          <mxGeometry width="150" height="36" as="geometry">
            <mxRectangle width="150" height="36" as="alternateBounds" />
          </mxGeometry>
        </mxCell>
        <mxCell id="cYdkkXX8m2xhBoEQVh9J-106" value="BOOLEAN" style="shape=partialRectangle;html=1;whiteSpace=wrap;connectable=0;strokeColor=inherit;overflow=hidden;fillColor=none;top=0;left=0;bottom=0;right=0;pointerEvents=1;fontSize=16;" parent="cYdkkXX8m2xhBoEQVh9J-104" vertex="1">
          <mxGeometry x="150" width="100" height="36" as="geometry">
            <mxRectangle width="100" height="36" as="alternateBounds" />
          </mxGeometry>
        </mxCell>
        <mxCell id="cYdkkXX8m2xhBoEQVh9J-107" value="" style="shape=partialRectangle;html=1;whiteSpace=wrap;connectable=0;strokeColor=inherit;overflow=hidden;fillColor=none;top=0;left=0;bottom=0;right=0;pointerEvents=1;fontSize=16;" parent="cYdkkXX8m2xhBoEQVh9J-104" vertex="1">
          <mxGeometry x="250" width="50" height="36" as="geometry">
            <mxRectangle width="50" height="36" as="alternateBounds" />
          </mxGeometry>
        </mxCell>
        <mxCell id="cYdkkXX8m2xhBoEQVh9J-108" value="" style="shape=tableRow;horizontal=0;startSize=0;swimlaneHead=0;swimlaneBody=0;strokeColor=inherit;top=0;left=0;bottom=0;right=0;collapsible=0;dropTarget=0;fillColor=none;points=[[0,0.5],[1,0.5]];portConstraint=eastwest;fontSize=16;" parent="cYdkkXX8m2xhBoEQVh9J-91" vertex="1">
          <mxGeometry y="174" width="300" height="36" as="geometry" />
        </mxCell>
        <mxCell id="cYdkkXX8m2xhBoEQVh9J-109" value="discriminator" style="shape=partialRectangle;html=1;whiteSpace=wrap;connectable=0;strokeColor=inherit;overflow=hidden;fillColor=none;top=0;left=0;bottom=0;right=0;pointerEvents=1;fontSize=16;" parent="cYdkkXX8m2xhBoEQVh9J-108" vertex="1">
          <mxGeometry width="150" height="36" as="geometry">
            <mxRectangle width="150" height="36" as="alternateBounds" />
          </mxGeometry>
        </mxCell>
        <mxCell id="cYdkkXX8m2xhBoEQVh9J-110" value="TEXT" style="shape=partialRectangle;html=1;whiteSpace=wrap;connectable=0;strokeColor=inherit;overflow=hidden;fillColor=none;top=0;left=0;bottom=0;right=0;pointerEvents=1;fontSize=16;" parent="cYdkkXX8m2xhBoEQVh9J-108" vertex="1">
          <mxGeometry x="150" width="100" height="36" as="geometry">
            <mxRectangle width="100" height="36" as="alternateBounds" />
          </mxGeometry>
        </mxCell>
        <mxCell id="cYdkkXX8m2xhBoEQVh9J-111" value="" style="shape=partialRectangle;html=1;whiteSpace=wrap;connectable=0;strokeColor=inherit;overflow=hidden;fillColor=none;top=0;left=0;bottom=0;right=0;pointerEvents=1;fontSize=16;" parent="cYdkkXX8m2xhBoEQVh9J-108" vertex="1">
          <mxGeometry x="250" width="50" height="36" as="geometry">
            <mxRectangle width="50" height="36" as="alternateBounds" />
          </mxGeometry>
        </mxCell>
        <mxCell id="cYdkkXX8m2xhBoEQVh9J-112" value="" style="shape=tableRow;horizontal=0;startSize=0;swimlaneHead=0;swimlaneBody=0;strokeColor=inherit;top=0;left=0;bottom=0;right=0;collapsible=0;dropTarget=0;fillColor=none;points=[[0,0.5],[1,0.5]];portConstraint=eastwest;fontSize=16;" parent="cYdkkXX8m2xhBoEQVh9J-91" vertex="1">
          <mxGeometry y="210" width="300" height="36" as="geometry" />
        </mxCell>
        <mxCell id="cYdkkXX8m2xhBoEQVh9J-113" value="CPUManufacturer" style="shape=partialRectangle;html=1;whiteSpace=wrap;connectable=0;strokeColor=inherit;overflow=hidden;fillColor=none;top=0;left=0;bottom=0;right=0;pointerEvents=1;fontSize=16;" parent="cYdkkXX8m2xhBoEQVh9J-112" vertex="1">
          <mxGeometry width="150" height="36" as="geometry">
            <mxRectangle width="150" height="36" as="alternateBounds" />
          </mxGeometry>
        </mxCell>
        <mxCell id="cYdkkXX8m2xhBoEQVh9J-114" value="TEXT" style="shape=partialRectangle;html=1;whiteSpace=wrap;connectable=0;strokeColor=inherit;overflow=hidden;fillColor=none;top=0;left=0;bottom=0;right=0;pointerEvents=1;fontSize=16;" parent="cYdkkXX8m2xhBoEQVh9J-112" vertex="1">
          <mxGeometry x="150" width="100" height="36" as="geometry">
            <mxRectangle width="100" height="36" as="alternateBounds" />
          </mxGeometry>
        </mxCell>
        <mxCell id="cYdkkXX8m2xhBoEQVh9J-115" value="" style="shape=partialRectangle;html=1;whiteSpace=wrap;connectable=0;strokeColor=inherit;overflow=hidden;fillColor=none;top=0;left=0;bottom=0;right=0;pointerEvents=1;fontSize=16;" parent="cYdkkXX8m2xhBoEQVh9J-112" vertex="1">
          <mxGeometry x="250" width="50" height="36" as="geometry">
            <mxRectangle width="50" height="36" as="alternateBounds" />
          </mxGeometry>
        </mxCell>
        <mxCell id="cYdkkXX8m2xhBoEQVh9J-116" value="" style="shape=tableRow;horizontal=0;startSize=0;swimlaneHead=0;swimlaneBody=0;strokeColor=inherit;top=0;left=0;bottom=0;right=0;collapsible=0;dropTarget=0;fillColor=none;points=[[0,0.5],[1,0.5]];portConstraint=eastwest;fontSize=16;" parent="cYdkkXX8m2xhBoEQVh9J-91" vertex="1">
          <mxGeometry y="246" width="300" height="36" as="geometry" />
        </mxCell>
        <mxCell id="cYdkkXX8m2xhBoEQVh9J-117" value="actualRentalPrice" style="shape=partialRectangle;html=1;whiteSpace=wrap;connectable=0;strokeColor=inherit;overflow=hidden;fillColor=none;top=0;left=0;bottom=0;right=0;pointerEvents=1;fontSize=16;" parent="cYdkkXX8m2xhBoEQVh9J-116" vertex="1">
          <mxGeometry width="150" height="36" as="geometry">
            <mxRectangle width="150" height="36" as="alternateBounds" />
          </mxGeometry>
        </mxCell>
        <mxCell id="cYdkkXX8m2xhBoEQVh9J-118" value="FLOAT" style="shape=partialRectangle;html=1;whiteSpace=wrap;connectable=0;strokeColor=inherit;overflow=hidden;fillColor=none;top=0;left=0;bottom=0;right=0;pointerEvents=1;fontSize=16;" parent="cYdkkXX8m2xhBoEQVh9J-116" vertex="1">
          <mxGeometry x="150" width="100" height="36" as="geometry">
            <mxRectangle width="100" height="36" as="alternateBounds" />
          </mxGeometry>
        </mxCell>
        <mxCell id="cYdkkXX8m2xhBoEQVh9J-119" value="" style="shape=partialRectangle;html=1;whiteSpace=wrap;connectable=0;strokeColor=inherit;overflow=hidden;fillColor=none;top=0;left=0;bottom=0;right=0;pointerEvents=1;fontSize=16;" parent="cYdkkXX8m2xhBoEQVh9J-116" vertex="1">
          <mxGeometry x="250" width="50" height="36" as="geometry">
            <mxRectangle width="50" height="36" as="alternateBounds" />
          </mxGeometry>
        </mxCell>
        <mxCell id="cYdkkXX8m2xhBoEQVh9J-124" value="rents_by_client" style="shape=table;startSize=30;container=1;collapsible=0;childLayout=tableLayout;strokeColor=default;fontSize=16;movable=1;resizable=1;rotatable=1;deletable=1;editable=1;locked=0;connectable=1;rowLines=1;columnLines=1;fixedRows=0;resizeLast=0;resizeLastRow=0;arcSize=15;absoluteArcSize=0;noLabel=0;" parent="1" vertex="1">
          <mxGeometry x="70" y="650" width="300" height="246" as="geometry" />
        </mxCell>
        <mxCell id="cYdkkXX8m2xhBoEQVh9J-158" value="" style="shape=tableRow;horizontal=0;startSize=0;swimlaneHead=0;swimlaneBody=0;strokeColor=inherit;top=0;left=0;bottom=0;right=0;collapsible=0;dropTarget=0;fillColor=none;points=[[0,0.5],[1,0.5]];portConstraint=eastwest;fontSize=16;" parent="cYdkkXX8m2xhBoEQVh9J-124" vertex="1">
          <mxGeometry y="30" width="300" height="36" as="geometry" />
        </mxCell>
        <mxCell id="cYdkkXX8m2xhBoEQVh9J-159" value="clientID" style="shape=partialRectangle;html=1;whiteSpace=wrap;connectable=0;strokeColor=inherit;overflow=hidden;fillColor=none;top=0;left=0;bottom=0;right=0;pointerEvents=1;fontSize=16;" parent="cYdkkXX8m2xhBoEQVh9J-158" vertex="1">
          <mxGeometry width="115" height="36" as="geometry">
            <mxRectangle width="115" height="36" as="alternateBounds" />
          </mxGeometry>
        </mxCell>
        <mxCell id="cYdkkXX8m2xhBoEQVh9J-160" value="UUID" style="shape=partialRectangle;html=1;whiteSpace=wrap;connectable=0;strokeColor=inherit;overflow=hidden;fillColor=none;top=0;left=0;bottom=0;right=0;pointerEvents=1;fontSize=16;" parent="cYdkkXX8m2xhBoEQVh9J-158" vertex="1">
          <mxGeometry x="115" width="135" height="36" as="geometry">
            <mxRectangle width="135" height="36" as="alternateBounds" />
          </mxGeometry>
        </mxCell>
        <mxCell id="cYdkkXX8m2xhBoEQVh9J-161" value="K" style="shape=partialRectangle;html=1;whiteSpace=wrap;connectable=0;strokeColor=inherit;overflow=hidden;fillColor=none;top=0;left=0;bottom=0;right=0;pointerEvents=1;fontSize=16;" parent="cYdkkXX8m2xhBoEQVh9J-158" vertex="1">
          <mxGeometry x="250" width="50" height="36" as="geometry">
            <mxRectangle width="50" height="36" as="alternateBounds" />
          </mxGeometry>
        </mxCell>
        <mxCell id="cYdkkXX8m2xhBoEQVh9J-125" value="" style="shape=tableRow;horizontal=0;startSize=0;swimlaneHead=0;swimlaneBody=0;strokeColor=inherit;top=0;left=0;bottom=0;right=0;collapsible=0;dropTarget=0;fillColor=none;points=[[0,0.5],[1,0.5]];portConstraint=eastwest;fontSize=16;" parent="cYdkkXX8m2xhBoEQVh9J-124" vertex="1">
          <mxGeometry y="66" width="300" height="36" as="geometry" />
        </mxCell>
        <mxCell id="cYdkkXX8m2xhBoEQVh9J-126" value="rentID" style="shape=partialRectangle;html=1;whiteSpace=wrap;connectable=0;strokeColor=inherit;overflow=hidden;fillColor=none;top=0;left=0;bottom=0;right=0;pointerEvents=1;fontSize=16;" parent="cYdkkXX8m2xhBoEQVh9J-125" vertex="1">
          <mxGeometry width="115" height="36" as="geometry">
            <mxRectangle width="115" height="36" as="alternateBounds" />
          </mxGeometry>
        </mxCell>
        <mxCell id="cYdkkXX8m2xhBoEQVh9J-127" value="UUID" style="shape=partialRectangle;html=1;whiteSpace=wrap;connectable=0;strokeColor=inherit;overflow=hidden;fillColor=none;top=0;left=0;bottom=0;right=0;pointerEvents=1;fontSize=16;" parent="cYdkkXX8m2xhBoEQVh9J-125" vertex="1">
          <mxGeometry x="115" width="135" height="36" as="geometry">
            <mxRectangle width="135" height="36" as="alternateBounds" />
          </mxGeometry>
        </mxCell>
        <mxCell id="cYdkkXX8m2xhBoEQVh9J-128" value="Câ†‘" style="shape=partialRectangle;html=1;whiteSpace=wrap;connectable=0;strokeColor=inherit;overflow=hidden;fillColor=none;top=0;left=0;bottom=0;right=0;pointerEvents=1;fontSize=16;" parent="cYdkkXX8m2xhBoEQVh9J-125" vertex="1">
          <mxGeometry x="250" width="50" height="36" as="geometry">
            <mxRectangle width="50" height="36" as="alternateBounds" />
          </mxGeometry>
        </mxCell>
        <mxCell id="cYdkkXX8m2xhBoEQVh9J-162" value="" style="shape=tableRow;horizontal=0;startSize=0;swimlaneHead=0;swimlaneBody=0;strokeColor=inherit;top=0;left=0;bottom=0;right=0;collapsible=0;dropTarget=0;fillColor=none;points=[[0,0.5],[1,0.5]];portConstraint=eastwest;fontSize=16;" parent="cYdkkXX8m2xhBoEQVh9J-124" vertex="1">
          <mxGeometry y="102" width="300" height="36" as="geometry" />
        </mxCell>
        <mxCell id="cYdkkXX8m2xhBoEQVh9J-163" value="beginTime" style="shape=partialRectangle;html=1;whiteSpace=wrap;connectable=0;strokeColor=inherit;overflow=hidden;fillColor=none;top=0;left=0;bottom=0;right=0;pointerEvents=1;fontSize=16;" parent="cYdkkXX8m2xhBoEQVh9J-162" vertex="1">
          <mxGeometry width="115" height="36" as="geometry">
            <mxRectangle width="115" height="36" as="alternateBounds" />
          </mxGeometry>
        </mxCell>
        <mxCell id="cYdkkXX8m2xhBoEQVh9J-164" value="TIMESTAMP" style="shape=partialRectangle;html=1;whiteSpace=wrap;connectable=0;strokeColor=inherit;overflow=hidden;fillColor=none;top=0;left=0;bottom=0;right=0;pointerEvents=1;fontSize=16;" parent="cYdkkXX8m2xhBoEQVh9J-162" vertex="1">
          <mxGeometry x="115" width="135" height="36" as="geometry">
            <mxRectangle width="135" height="36" as="alternateBounds" />
          </mxGeometry>
        </mxCell>
        <mxCell id="cYdkkXX8m2xhBoEQVh9J-165" value="" style="shape=partialRectangle;html=1;whiteSpace=wrap;connectable=0;strokeColor=inherit;overflow=hidden;fillColor=none;top=0;left=0;bottom=0;right=0;pointerEvents=1;fontSize=16;" parent="cYdkkXX8m2xhBoEQVh9J-162" vertex="1">
          <mxGeometry x="250" width="50" height="36" as="geometry">
            <mxRectangle width="50" height="36" as="alternateBounds" />
          </mxGeometry>
        </mxCell>
        <mxCell id="cYdkkXX8m2xhBoEQVh9J-166" value="" style="shape=tableRow;horizontal=0;startSize=0;swimlaneHead=0;swimlaneBody=0;strokeColor=inherit;top=0;left=0;bottom=0;right=0;collapsible=0;dropTarget=0;fillColor=none;points=[[0,0.5],[1,0.5]];portConstraint=eastwest;fontSize=16;" parent="cYdkkXX8m2xhBoEQVh9J-124" vertex="1">
          <mxGeometry y="138" width="300" height="36" as="geometry" />
        </mxCell>
        <mxCell id="cYdkkXX8m2xhBoEQVh9J-167" value="endTime" style="shape=partialRectangle;html=1;whiteSpace=wrap;connectable=0;strokeColor=inherit;overflow=hidden;fillColor=none;top=0;left=0;bottom=0;right=0;pointerEvents=1;fontSize=16;" parent="cYdkkXX8m2xhBoEQVh9J-166" vertex="1">
          <mxGeometry width="115" height="36" as="geometry">
            <mxRectangle width="115" height="36" as="alternateBounds" />
          </mxGeometry>
        </mxCell>
        <mxCell id="cYdkkXX8m2xhBoEQVh9J-168" value="TIMESTAMP" style="shape=partialRectangle;html=1;whiteSpace=wrap;connectable=0;strokeColor=inherit;overflow=hidden;fillColor=none;top=0;left=0;bottom=0;right=0;pointerEvents=1;fontSize=16;" parent="cYdkkXX8m2xhBoEQVh9J-166" vertex="1">
          <mxGeometry x="115" width="135" height="36" as="geometry">
            <mxRectangle width="135" height="36" as="alternateBounds" />
          </mxGeometry>
        </mxCell>
        <mxCell id="cYdkkXX8m2xhBoEQVh9J-169" value="" style="shape=partialRectangle;html=1;whiteSpace=wrap;connectable=0;strokeColor=inherit;overflow=hidden;fillColor=none;top=0;left=0;bottom=0;right=0;pointerEvents=1;fontSize=16;" parent="cYdkkXX8m2xhBoEQVh9J-166" vertex="1">
          <mxGeometry x="250" width="50" height="36" as="geometry">
            <mxRectangle width="50" height="36" as="alternateBounds" />
          </mxGeometry>
        </mxCell>
        <mxCell id="cYdkkXX8m2xhBoEQVh9J-204" value="" style="shape=tableRow;horizontal=0;startSize=0;swimlaneHead=0;swimlaneBody=0;strokeColor=inherit;top=0;left=0;bottom=0;right=0;collapsible=0;dropTarget=0;fillColor=none;points=[[0,0.5],[1,0.5]];portConstraint=eastwest;fontSize=16;" parent="cYdkkXX8m2xhBoEQVh9J-124" vertex="1">
          <mxGeometry y="174" width="300" height="36" as="geometry" />
        </mxCell>
        <mxCell id="cYdkkXX8m2xhBoEQVh9J-205" value="vmID" style="shape=partialRectangle;html=1;whiteSpace=wrap;connectable=0;strokeColor=inherit;overflow=hidden;fillColor=none;top=0;left=0;bottom=0;right=0;pointerEvents=1;fontSize=16;" parent="cYdkkXX8m2xhBoEQVh9J-204" vertex="1">
          <mxGeometry width="115" height="36" as="geometry">
            <mxRectangle width="115" height="36" as="alternateBounds" />
          </mxGeometry>
        </mxCell>
        <mxCell id="cYdkkXX8m2xhBoEQVh9J-206" value="UUID" style="shape=partialRectangle;html=1;whiteSpace=wrap;connectable=0;strokeColor=inherit;overflow=hidden;fillColor=none;top=0;left=0;bottom=0;right=0;pointerEvents=1;fontSize=16;" parent="cYdkkXX8m2xhBoEQVh9J-204" vertex="1">
          <mxGeometry x="115" width="135" height="36" as="geometry">
            <mxRectangle width="135" height="36" as="alternateBounds" />
          </mxGeometry>
        </mxCell>
        <mxCell id="cYdkkXX8m2xhBoEQVh9J-207" value="" style="shape=partialRectangle;html=1;whiteSpace=wrap;connectable=0;strokeColor=inherit;overflow=hidden;fillColor=none;top=0;left=0;bottom=0;right=0;pointerEvents=1;fontSize=16;" parent="cYdkkXX8m2xhBoEQVh9J-204" vertex="1">
          <mxGeometry x="250" width="50" height="36" as="geometry">
            <mxRectangle width="50" height="36" as="alternateBounds" />
          </mxGeometry>
        </mxCell>
        <mxCell id="cYdkkXX8m2xhBoEQVh9J-208" value="" style="shape=tableRow;horizontal=0;startSize=0;swimlaneHead=0;swimlaneBody=0;strokeColor=inherit;top=0;left=0;bottom=0;right=0;collapsible=0;dropTarget=0;fillColor=none;points=[[0,0.5],[1,0.5]];portConstraint=eastwest;fontSize=16;" parent="cYdkkXX8m2xhBoEQVh9J-124" vertex="1">
          <mxGeometry y="210" width="300" height="36" as="geometry" />
        </mxCell>
        <mxCell id="cYdkkXX8m2xhBoEQVh9J-209" value="rentCost" style="shape=partialRectangle;html=1;whiteSpace=wrap;connectable=0;strokeColor=inherit;overflow=hidden;fillColor=none;top=0;left=0;bottom=0;right=0;pointerEvents=1;fontSize=16;" parent="cYdkkXX8m2xhBoEQVh9J-208" vertex="1">
          <mxGeometry width="115" height="36" as="geometry">
            <mxRectangle width="115" height="36" as="alternateBounds" />
          </mxGeometry>
        </mxCell>
        <mxCell id="cYdkkXX8m2xhBoEQVh9J-210" value="DOUBLE" style="shape=partialRectangle;html=1;whiteSpace=wrap;connectable=0;strokeColor=inherit;overflow=hidden;fillColor=none;top=0;left=0;bottom=0;right=0;pointerEvents=1;fontSize=16;" parent="cYdkkXX8m2xhBoEQVh9J-208" vertex="1">
          <mxGeometry x="115" width="135" height="36" as="geometry">
            <mxRectangle width="135" height="36" as="alternateBounds" />
          </mxGeometry>
        </mxCell>
        <mxCell id="cYdkkXX8m2xhBoEQVh9J-211" value="" style="shape=partialRectangle;html=1;whiteSpace=wrap;connectable=0;strokeColor=inherit;overflow=hidden;fillColor=none;top=0;left=0;bottom=0;right=0;pointerEvents=1;fontSize=16;" parent="cYdkkXX8m2xhBoEQVh9J-208" vertex="1">
          <mxGeometry x="250" width="50" height="36" as="geometry">
            <mxRectangle width="50" height="36" as="alternateBounds" />
          </mxGeometry>
        </mxCell>
        <mxCell id="cYdkkXX8m2xhBoEQVh9J-212" value="rents_by_vmachine" style="shape=table;startSize=30;container=1;collapsible=0;childLayout=tableLayout;strokeColor=default;fontSize=16;movable=1;resizable=1;rotatable=1;deletable=1;editable=1;locked=0;connectable=1;rowLines=1;columnLines=1;fixedRows=0;resizeLast=0;resizeLastRow=0;arcSize=15;absoluteArcSize=0;noLabel=0;" parent="1" vertex="1">
          <mxGeometry x="480" y="661" width="300" height="246" as="geometry" />
        </mxCell>
        <mxCell id="cYdkkXX8m2xhBoEQVh9J-217" value="" style="shape=tableRow;horizontal=0;startSize=0;swimlaneHead=0;swimlaneBody=0;strokeColor=inherit;top=0;left=0;bottom=0;right=0;collapsible=0;dropTarget=0;fillColor=none;points=[[0,0.5],[1,0.5]];portConstraint=eastwest;fontSize=16;" parent="cYdkkXX8m2xhBoEQVh9J-212" vertex="1">
          <mxGeometry y="30" width="300" height="36" as="geometry" />
        </mxCell>
        <mxCell id="cYdkkXX8m2xhBoEQVh9J-218" value="vmID" style="shape=partialRectangle;html=1;whiteSpace=wrap;connectable=0;strokeColor=inherit;overflow=hidden;fillColor=none;top=0;left=0;bottom=0;right=0;pointerEvents=1;fontSize=16;" parent="cYdkkXX8m2xhBoEQVh9J-217" vertex="1">
          <mxGeometry width="115" height="36" as="geometry">
            <mxRectangle width="115" height="36" as="alternateBounds" />
          </mxGeometry>
        </mxCell>
        <mxCell id="cYdkkXX8m2xhBoEQVh9J-219" value="UUID" style="shape=partialRectangle;html=1;whiteSpace=wrap;connectable=0;strokeColor=inherit;overflow=hidden;fillColor=none;top=0;left=0;bottom=0;right=0;pointerEvents=1;fontSize=16;" parent="cYdkkXX8m2xhBoEQVh9J-217" vertex="1">
          <mxGeometry x="115" width="135" height="36" as="geometry">
            <mxRectangle width="135" height="36" as="alternateBounds" />
          </mxGeometry>
        </mxCell>
        <mxCell id="cYdkkXX8m2xhBoEQVh9J-220" value="K" style="shape=partialRectangle;html=1;whiteSpace=wrap;connectable=0;strokeColor=inherit;overflow=hidden;fillColor=none;top=0;left=0;bottom=0;right=0;pointerEvents=1;fontSize=16;" parent="cYdkkXX8m2xhBoEQVh9J-217" vertex="1">
          <mxGeometry x="250" width="50" height="36" as="geometry">
            <mxRectangle width="50" height="36" as="alternateBounds" />
          </mxGeometry>
        </mxCell>
        <mxCell id="cYdkkXX8m2xhBoEQVh9J-213" value="" style="shape=tableRow;horizontal=0;startSize=0;swimlaneHead=0;swimlaneBody=0;strokeColor=inherit;top=0;left=0;bottom=0;right=0;collapsible=0;dropTarget=0;fillColor=none;points=[[0,0.5],[1,0.5]];portConstraint=eastwest;fontSize=16;" parent="cYdkkXX8m2xhBoEQVh9J-212" vertex="1">
          <mxGeometry y="66" width="300" height="36" as="geometry" />
        </mxCell>
        <mxCell id="cYdkkXX8m2xhBoEQVh9J-214" value="rentID" style="shape=partialRectangle;html=1;whiteSpace=wrap;connectable=0;strokeColor=inherit;overflow=hidden;fillColor=none;top=0;left=0;bottom=0;right=0;pointerEvents=1;fontSize=16;" parent="cYdkkXX8m2xhBoEQVh9J-213" vertex="1">
          <mxGeometry width="115" height="36" as="geometry">
            <mxRectangle width="115" height="36" as="alternateBounds" />
          </mxGeometry>
        </mxCell>
        <mxCell id="cYdkkXX8m2xhBoEQVh9J-215" value="UUID" style="shape=partialRectangle;html=1;whiteSpace=wrap;connectable=0;strokeColor=inherit;overflow=hidden;fillColor=none;top=0;left=0;bottom=0;right=0;pointerEvents=1;fontSize=16;" parent="cYdkkXX8m2xhBoEQVh9J-213" vertex="1">
          <mxGeometry x="115" width="135" height="36" as="geometry">
            <mxRectangle width="135" height="36" as="alternateBounds" />
          </mxGeometry>
        </mxCell>
        <mxCell id="cYdkkXX8m2xhBoEQVh9J-216" value="Câ†‘" style="shape=partialRectangle;html=1;whiteSpace=wrap;connectable=0;strokeColor=inherit;overflow=hidden;fillColor=none;top=0;left=0;bottom=0;right=0;pointerEvents=1;fontSize=16;" parent="cYdkkXX8m2xhBoEQVh9J-213" vertex="1">
          <mxGeometry x="250" width="50" height="36" as="geometry">
            <mxRectangle width="50" height="36" as="alternateBounds" />
          </mxGeometry>
        </mxCell>
        <mxCell id="cYdkkXX8m2xhBoEQVh9J-225" value="" style="shape=tableRow;horizontal=0;startSize=0;swimlaneHead=0;swimlaneBody=0;strokeColor=inherit;top=0;left=0;bottom=0;right=0;collapsible=0;dropTarget=0;fillColor=none;points=[[0,0.5],[1,0.5]];portConstraint=eastwest;fontSize=16;" parent="cYdkkXX8m2xhBoEQVh9J-212" vertex="1">
          <mxGeometry y="102" width="300" height="36" as="geometry" />
        </mxCell>
        <mxCell id="cYdkkXX8m2xhBoEQVh9J-226" value="beginTime" style="shape=partialRectangle;html=1;whiteSpace=wrap;connectable=0;strokeColor=inherit;overflow=hidden;fillColor=none;top=0;left=0;bottom=0;right=0;pointerEvents=1;fontSize=16;" parent="cYdkkXX8m2xhBoEQVh9J-225" vertex="1">
          <mxGeometry width="115" height="36" as="geometry">
            <mxRectangle width="115" height="36" as="alternateBounds" />
          </mxGeometry>
        </mxCell>
        <mxCell id="cYdkkXX8m2xhBoEQVh9J-227" value="TIMESTAMP" style="shape=partialRectangle;html=1;whiteSpace=wrap;connectable=0;strokeColor=inherit;overflow=hidden;fillColor=none;top=0;left=0;bottom=0;right=0;pointerEvents=1;fontSize=16;" parent="cYdkkXX8m2xhBoEQVh9J-225" vertex="1">
          <mxGeometry x="115" width="135" height="36" as="geometry">
            <mxRectangle width="135" height="36" as="alternateBounds" />
          </mxGeometry>
        </mxCell>
        <mxCell id="cYdkkXX8m2xhBoEQVh9J-228" value="" style="shape=partialRectangle;html=1;whiteSpace=wrap;connectable=0;strokeColor=inherit;overflow=hidden;fillColor=none;top=0;left=0;bottom=0;right=0;pointerEvents=1;fontSize=16;" parent="cYdkkXX8m2xhBoEQVh9J-225" vertex="1">
          <mxGeometry x="250" width="50" height="36" as="geometry">
            <mxRectangle width="50" height="36" as="alternateBounds" />
          </mxGeometry>
        </mxCell>
        <mxCell id="cYdkkXX8m2xhBoEQVh9J-221" value="" style="shape=tableRow;horizontal=0;startSize=0;swimlaneHead=0;swimlaneBody=0;strokeColor=inherit;top=0;left=0;bottom=0;right=0;collapsible=0;dropTarget=0;fillColor=none;points=[[0,0.5],[1,0.5]];portConstraint=eastwest;fontSize=16;" parent="cYdkkXX8m2xhBoEQVh9J-212" vertex="1">
          <mxGeometry y="138" width="300" height="36" as="geometry" />
        </mxCell>
        <mxCell id="cYdkkXX8m2xhBoEQVh9J-222" value="endTime" style="shape=partialRectangle;html=1;whiteSpace=wrap;connectable=0;strokeColor=inherit;overflow=hidden;fillColor=none;top=0;left=0;bottom=0;right=0;pointerEvents=1;fontSize=16;" parent="cYdkkXX8m2xhBoEQVh9J-221" vertex="1">
          <mxGeometry width="115" height="36" as="geometry">
            <mxRectangle width="115" height="36" as="alternateBounds" />
          </mxGeometry>
        </mxCell>
        <mxCell id="cYdkkXX8m2xhBoEQVh9J-223" value="TIMESTAMP" style="shape=partialRectangle;html=1;whiteSpace=wrap;connectable=0;strokeColor=inherit;overflow=hidden;fillColor=none;top=0;left=0;bottom=0;right=0;pointerEvents=1;fontSize=16;" parent="cYdkkXX8m2xhBoEQVh9J-221" vertex="1">
          <mxGeometry x="115" width="135" height="36" as="geometry">
            <mxRectangle width="135" height="36" as="alternateBounds" />
          </mxGeometry>
        </mxCell>
        <mxCell id="cYdkkXX8m2xhBoEQVh9J-224" value="" style="shape=partialRectangle;html=1;whiteSpace=wrap;connectable=0;strokeColor=inherit;overflow=hidden;fillColor=none;top=0;left=0;bottom=0;right=0;pointerEvents=1;fontSize=16;" parent="cYdkkXX8m2xhBoEQVh9J-221" vertex="1">
          <mxGeometry x="250" width="50" height="36" as="geometry">
            <mxRectangle width="50" height="36" as="alternateBounds" />
          </mxGeometry>
        </mxCell>
        <mxCell id="cYdkkXX8m2xhBoEQVh9J-229" value="" style="shape=tableRow;horizontal=0;startSize=0;swimlaneHead=0;swimlaneBody=0;strokeColor=inherit;top=0;left=0;bottom=0;right=0;collapsible=0;dropTarget=0;fillColor=none;points=[[0,0.5],[1,0.5]];portConstraint=eastwest;fontSize=16;" parent="cYdkkXX8m2xhBoEQVh9J-212" vertex="1">
          <mxGeometry y="174" width="300" height="36" as="geometry" />
        </mxCell>
        <mxCell id="cYdkkXX8m2xhBoEQVh9J-230" value="clientID" style="shape=partialRectangle;html=1;whiteSpace=wrap;connectable=0;strokeColor=inherit;overflow=hidden;fillColor=none;top=0;left=0;bottom=0;right=0;pointerEvents=1;fontSize=16;" parent="cYdkkXX8m2xhBoEQVh9J-229" vertex="1">
          <mxGeometry width="115" height="36" as="geometry">
            <mxRectangle width="115" height="36" as="alternateBounds" />
          </mxGeometry>
        </mxCell>
        <mxCell id="cYdkkXX8m2xhBoEQVh9J-231" value="UUID" style="shape=partialRectangle;html=1;whiteSpace=wrap;connectable=0;strokeColor=inherit;overflow=hidden;fillColor=none;top=0;left=0;bottom=0;right=0;pointerEvents=1;fontSize=16;" parent="cYdkkXX8m2xhBoEQVh9J-229" vertex="1">
          <mxGeometry x="115" width="135" height="36" as="geometry">
            <mxRectangle width="135" height="36" as="alternateBounds" />
          </mxGeometry>
        </mxCell>
        <mxCell id="cYdkkXX8m2xhBoEQVh9J-232" value="" style="shape=partialRectangle;html=1;whiteSpace=wrap;connectable=0;strokeColor=inherit;overflow=hidden;fillColor=none;top=0;left=0;bottom=0;right=0;pointerEvents=1;fontSize=16;" parent="cYdkkXX8m2xhBoEQVh9J-229" vertex="1">
          <mxGeometry x="250" width="50" height="36" as="geometry">
            <mxRectangle width="50" height="36" as="alternateBounds" />
          </mxGeometry>
        </mxCell>
        <mxCell id="cYdkkXX8m2xhBoEQVh9J-233" value="" style="shape=tableRow;horizontal=0;startSize=0;swimlaneHead=0;swimlaneBody=0;strokeColor=inherit;top=0;left=0;bottom=0;right=0;collapsible=0;dropTarget=0;fillColor=none;points=[[0,0.5],[1,0.5]];portConstraint=eastwest;fontSize=16;" parent="cYdkkXX8m2xhBoEQVh9J-212" vertex="1">
          <mxGeometry y="210" width="300" height="36" as="geometry" />
        </mxCell>
        <mxCell id="cYdkkXX8m2xhBoEQVh9J-234" value="rentCost" style="shape=partialRectangle;html=1;whiteSpace=wrap;connectable=0;strokeColor=inherit;overflow=hidden;fillColor=none;top=0;left=0;bottom=0;right=0;pointerEvents=1;fontSize=16;" parent="cYdkkXX8m2xhBoEQVh9J-233" vertex="1">
          <mxGeometry width="115" height="36" as="geometry">
            <mxRectangle width="115" height="36" as="alternateBounds" />
          </mxGeometry>
        </mxCell>
        <mxCell id="cYdkkXX8m2xhBoEQVh9J-235" value="DOUBLE" style="shape=partialRectangle;html=1;whiteSpace=wrap;connectable=0;strokeColor=inherit;overflow=hidden;fillColor=none;top=0;left=0;bottom=0;right=0;pointerEvents=1;fontSize=16;" parent="cYdkkXX8m2xhBoEQVh9J-233" vertex="1">
          <mxGeometry x="115" width="135" height="36" as="geometry">
            <mxRectangle width="135" height="36" as="alternateBounds" />
          </mxGeometry>
        </mxCell>
        <mxCell id="cYdkkXX8m2xhBoEQVh9J-236" value="" style="shape=partialRectangle;html=1;whiteSpace=wrap;connectable=0;strokeColor=inherit;overflow=hidden;fillColor=none;top=0;left=0;bottom=0;right=0;pointerEvents=1;fontSize=16;" parent="cYdkkXX8m2xhBoEQVh9J-233" vertex="1">
          <mxGeometry x="250" width="50" height="36" as="geometry">
            <mxRectangle width="50" height="36" as="alternateBounds" />
          </mxGeometry>
        </mxCell>
        <mxCell id="8krXpAOAqkzqmPUhllHd-3" style="edgeStyle=orthogonalEdgeStyle;rounded=0;orthogonalLoop=1;jettySize=auto;html=1;" edge="1" parent="1" source="8krXpAOAqkzqmPUhllHd-1" target="8krXpAOAqkzqmPUhllHd-5">
          <mxGeometry relative="1" as="geometry">
            <mxPoint x="1035" y="500" as="targetPoint" />
          </mxGeometry>
        </mxCell>
        <mxCell id="8krXpAOAqkzqmPUhllHd-1" value="Q1&lt;br&gt;wyszukaj klienta po UUID" style="shape=note;whiteSpace=wrap;html=1;backgroundOutline=1;darkOpacity=0.05;" vertex="1" parent="1">
          <mxGeometry x="950" y="250" width="170" height="100" as="geometry" />
        </mxCell>
        <mxCell id="8krXpAOAqkzqmPUhllHd-4" style="edgeStyle=orthogonalEdgeStyle;rounded=0;orthogonalLoop=1;jettySize=auto;html=1;" edge="1" parent="1" source="8krXpAOAqkzqmPUhllHd-2" target="8krXpAOAqkzqmPUhllHd-6">
          <mxGeometry relative="1" as="geometry">
            <mxPoint x="1340" y="480" as="targetPoint" />
          </mxGeometry>
        </mxCell>
        <mxCell id="8krXpAOAqkzqmPUhllHd-2" value="Q2&lt;br&gt;wyszukaj maszynÄ™ wirtualnÄ… po UUID" style="shape=note;whiteSpace=wrap;html=1;backgroundOutline=1;darkOpacity=0.05;" vertex="1" parent="1">
          <mxGeometry x="1270" y="250" width="170" height="100" as="geometry" />
        </mxCell>
        <mxCell id="8krXpAOAqkzqmPUhllHd-5" value="Q3&lt;br&gt;wyszukaj wypoÅ¼yczenia klienta" style="shape=note;whiteSpace=wrap;html=1;backgroundOutline=1;darkOpacity=0.05;" vertex="1" parent="1">
          <mxGeometry x="950" y="520" width="170" height="100" as="geometry" />
        </mxCell>
        <mxCell id="8krXpAOAqkzqmPUhllHd-6" value="Q4&lt;br&gt;wyszukaj wypoÅ¼yczenia maszyny" style="shape=note;whiteSpace=wrap;html=1;backgroundOutline=1;darkOpacity=0.05;" vertex="1" parent="1">
          <mxGeometry x="1270" y="520" width="170" height="100" as="geometry" />
        </mxCell>
        <mxCell id="8krXpAOAqkzqmPUhllHd-7" value="" style="endArrow=classic;html=1;rounded=0;" edge="1" parent="1" source="cYdkkXX8m2xhBoEQVh9J-1" target="cYdkkXX8m2xhBoEQVh9J-124">
          <mxGeometry width="50" height="50" relative="1" as="geometry">
            <mxPoint x="328" y="584" as="sourcePoint" />
            <mxPoint x="378" y="534" as="targetPoint" />
          </mxGeometry>
        </mxCell>
        <mxCell id="8krXpAOAqkzqmPUhllHd-8" value="Q3" style="edgeLabel;html=1;align=center;verticalAlign=middle;resizable=0;points=[];fontSize=16;" vertex="1" connectable="0" parent="8krXpAOAqkzqmPUhllHd-7">
          <mxGeometry x="0.2806" y="5" relative="1" as="geometry">
            <mxPoint x="12" y="-16" as="offset" />
          </mxGeometry>
        </mxCell>
        <mxCell id="8krXpAOAqkzqmPUhllHd-9" value="" style="endArrow=classic;html=1;rounded=0;entryX=0.25;entryY=0;entryDx=0;entryDy=0;" edge="1" parent="1" source="cYdkkXX8m2xhBoEQVh9J-124" target="cYdkkXX8m2xhBoEQVh9J-91">
          <mxGeometry width="50" height="50" relative="1" as="geometry">
            <mxPoint x="231.5" y="934" as="sourcePoint" />
            <mxPoint x="600" y="250" as="targetPoint" />
            <Array as="points">
              <mxPoint x="220" y="1000" />
              <mxPoint x="370" y="1000" />
              <mxPoint x="480" y="240" />
              <mxPoint x="555" y="240" />
            </Array>
          </mxGeometry>
        </mxCell>
        <mxCell id="8krXpAOAqkzqmPUhllHd-10" value="Q5" style="edgeLabel;html=1;align=center;verticalAlign=middle;resizable=0;points=[];fontSize=16;" vertex="1" connectable="0" parent="8krXpAOAqkzqmPUhllHd-9">
          <mxGeometry x="0.2806" y="5" relative="1" as="geometry">
            <mxPoint x="-175" y="445" as="offset" />
          </mxGeometry>
        </mxCell>
        <mxCell id="8krXpAOAqkzqmPUhllHd-40" value="" style="endArrow=classic;html=1;rounded=0;" edge="1" parent="1">
          <mxGeometry width="50" height="50" relative="1" as="geometry">
            <mxPoint x="219.41" y="140" as="sourcePoint" />
            <mxPoint x="219.41" y="290" as="targetPoint" />
          </mxGeometry>
        </mxCell>
        <mxCell id="8krXpAOAqkzqmPUhllHd-41" value="Q1" style="edgeLabel;html=1;align=center;verticalAlign=middle;resizable=0;points=[];fontSize=16;" vertex="1" connectable="0" parent="8krXpAOAqkzqmPUhllHd-40">
          <mxGeometry x="0.2806" y="5" relative="1" as="geometry">
            <mxPoint x="12" y="-16" as="offset" />
          </mxGeometry>
        </mxCell>
        <mxCell id="8krXpAOAqkzqmPUhllHd-42" value="" style="endArrow=classic;html=1;rounded=0;" edge="1" parent="1" target="cYdkkXX8m2xhBoEQVh9J-91">
          <mxGeometry width="50" height="50" relative="1" as="geometry">
            <mxPoint x="630" y="150" as="sourcePoint" />
            <mxPoint x="629.52" y="300" as="targetPoint" />
          </mxGeometry>
        </mxCell>
        <mxCell id="8krXpAOAqkzqmPUhllHd-43" value="Q2" style="edgeLabel;html=1;align=center;verticalAlign=middle;resizable=0;points=[];fontSize=16;" vertex="1" connectable="0" parent="8krXpAOAqkzqmPUhllHd-42">
          <mxGeometry x="0.2806" y="5" relative="1" as="geometry">
            <mxPoint x="12" y="-16" as="offset" />
          </mxGeometry>
        </mxCell>
        <mxCell id="8krXpAOAqkzqmPUhllHd-45" value="" style="endArrow=classic;html=1;rounded=0;" edge="1" parent="1" source="cYdkkXX8m2xhBoEQVh9J-91" target="cYdkkXX8m2xhBoEQVh9J-212">
          <mxGeometry width="50" height="50" relative="1" as="geometry">
            <mxPoint x="650" y="550" as="sourcePoint" />
            <mxPoint x="650" y="700" as="targetPoint" />
          </mxGeometry>
        </mxCell>
        <mxCell id="8krXpAOAqkzqmPUhllHd-46" value="Q4" style="edgeLabel;html=1;align=center;verticalAlign=middle;resizable=0;points=[];fontSize=16;" vertex="1" connectable="0" parent="8krXpAOAqkzqmPUhllHd-45">
          <mxGeometry x="0.2806" y="5" relative="1" as="geometry">
            <mxPoint x="12" y="-16" as="offset" />
          </mxGeometry>
        </mxCell>
        <mxCell id="8krXpAOAqkzqmPUhllHd-47" value="" style="endArrow=classic;html=1;rounded=0;entryX=0.75;entryY=0;entryDx=0;entryDy=0;" edge="1" parent="1" source="cYdkkXX8m2xhBoEQVh9J-212" target="cYdkkXX8m2xhBoEQVh9J-1">
          <mxGeometry width="50" height="50" relative="1" as="geometry">
            <mxPoint x="630" y="960" as="sourcePoint" />
            <mxPoint x="630" y="1048" as="targetPoint" />
            <Array as="points">
              <mxPoint x="630" y="1000" />
              <mxPoint x="480" y="1000" />
              <mxPoint x="370" y="240" />
              <mxPoint x="294" y="240" />
            </Array>
          </mxGeometry>
        </mxCell>
        <mxCell id="8krXpAOAqkzqmPUhllHd-48" value="Q6" style="edgeLabel;html=1;align=center;verticalAlign=middle;resizable=0;points=[];fontSize=16;" vertex="1" connectable="0" parent="8krXpAOAqkzqmPUhllHd-47">
          <mxGeometry x="0.2806" y="5" relative="1" as="geometry">
            <mxPoint x="259" y="418" as="offset" />
          </mxGeometry>
        </mxCell>
        <mxCell id="8krXpAOAqkzqmPUhllHd-49" value="Q5 &lt;br&gt;&lt;span style=&quot;color: rgba(0, 0, 0, 0); font-family: monospace; font-size: 0px; text-align: start; text-wrap-mode: nowrap;&quot;&gt;%3CmxGraphModel%3E%3Croot%3E%3CmxCell%20id%3D%220%22%2F%3E%3CmxCell%20id%3D%221%22%20parent%3D%220%22%2F%3E%3CmxCell%20id%3D%222%22%20value%3D%22%22%20style%3D%22endArrow%3Dclassic%3Bhtml%3D1%3Brounded%3D0%3B%22%20edge%3D%221%22%20parent%3D%221%22%3E%3CmxGeometry%20width%3D%2250%22%20height%3D%2250%22%20relative%3D%221%22%20as%3D%22geometry%22%3E%3CmxPoint%20x%3D%22630%22%20y%3D%22573%22%20as%3D%22sourcePoint%22%2F%3E%3CmxPoint%20x%3D%22630%22%20y%3D%22661%22%20as%3D%22targetPoint%22%2F%3E%3C%2FmxGeometry%3E%3C%2FmxCell%3E%3CmxCell%20id%3D%223%22%20value%3D%22Q4%22%20style%3D%22edgeLabel%3Bhtml%3D1%3Balign%3Dcenter%3BverticalAlign%3Dmiddle%3Bresizable%3D0%3Bpoints%3D%5B%5D%3BfontSize%3D16%3B%22%20vertex%3D%221%22%20connectable%3D%220%22%20parent%3D%222%22%3E%3CmxGeometry%20x%3D%220.2806%22%20y%3D%225%22%20relative%3D%221%22%20as%3D%22geometry%22%3E%3CmxPoint%20x%3D%2212%22%20y%3D%22-16%22%20as%3D%22offset%22%2F%3E%3C%2FmxGeometry%3E%3C%2FmxCell%3E%3C%2Froot%3E%3C%2FmxGraphModel%3E&lt;/span&gt;wyszukaj maszynÄ™ wypoÅ¼yczonÄ… przez klienta" style="shape=note;whiteSpace=wrap;html=1;backgroundOutline=1;darkOpacity=0.05;" vertex="1" parent="1">
          <mxGeometry x="950" y="770" width="170" height="100" as="geometry" />
        </mxCell>
        <mxCell id="8krXpAOAqkzqmPUhllHd-50" value="Q6&lt;br&gt;&lt;span style=&quot;color: rgba(0, 0, 0, 0); font-family: monospace; font-size: 0px; text-align: start; text-wrap-mode: nowrap;&quot;&gt;%3CmxGraphModel%3E%3Croot%3E%3CmxCell%20id%3D%220%22%2F%3E%3CmxCell%20id%3D%221%22%20parent%3D%220%22%2F%3E%3CmxCell%20id%3D%222%22%20value%3D%22%22%20style%3D%22endArrow%3Dclassic%3Bhtml%3D1%3Brounded%3D0%3B%22%20edge%3D%221%22%20parent%3D%221%22%3E%3CmxGeometry%20width%3D%2250%22%20height%3D%2250%22%20relative%3D%221%22%20as%3D%22geometry%22%3E%3CmxPoint%20x%3D%22630%22%20y%3D%22573%22%20as%3D%22sourcePoint%22%2F%3E%3CmxPoint%20x%3D%22630%22%20y%3D%22661%22%20as%3D%22targetPoint%22%2F%3E%3C%2FmxGeometry%3E%3C%2FmxCell%3E%3CmxCell%20id%3D%223%22%20value%3D%22Q4%22%20style%3D%22edgeLabel%3Bhtml%3D1%3Balign%3Dcenter%3BverticalAlign%3Dmiddle%3Bresizable%3D0%3Bpoints%3D%5B%5D%3BfontSize%3D16%3B%22%20vertex%3D%221%22%20connectable%3D%220%22%20parent%3D%222%22%3E%3CmxGeometry%20x%3D%220.2806%22%20y%3D%225%22%20relative%3D%221%22%20as%3D%22geometry%22%3E%3CmxPoint%20x%3D%2212%22%20y%3D%22-16%22%20as%3D%22offset%22%2F%3E%3C%2FmxGeometry%3E%3C%2FmxCell%3E%3C%2Froot%3E%3C%2FmxGraphModel%3E&lt;/span&gt;wyszukaj klienta ktÃ³ry wypoÅ¼ycza maszynÄ™" style="shape=note;whiteSpace=wrap;html=1;backgroundOutline=1;darkOpacity=0.05;" vertex="1" parent="1">
          <mxGeometry x="1270" y="770" width="170" height="100" as="geometry" />
        </mxCell>
        <mxCell id="8krXpAOAqkzqmPUhllHd-51" style="edgeStyle=orthogonalEdgeStyle;rounded=0;orthogonalLoop=1;jettySize=auto;html=1;" edge="1" parent="1" source="8krXpAOAqkzqmPUhllHd-5" target="8krXpAOAqkzqmPUhllHd-49">
          <mxGeometry relative="1" as="geometry">
            <mxPoint x="1060" y="820" as="targetPoint" />
            <mxPoint x="1060" y="650" as="sourcePoint" />
          </mxGeometry>
        </mxCell>
        <mxCell id="8krXpAOAqkzqmPUhllHd-52" style="edgeStyle=orthogonalEdgeStyle;rounded=0;orthogonalLoop=1;jettySize=auto;html=1;" edge="1" parent="1" source="8krXpAOAqkzqmPUhllHd-6" target="8krXpAOAqkzqmPUhllHd-50">
          <mxGeometry relative="1" as="geometry">
            <mxPoint x="1045" y="780" as="targetPoint" />
            <mxPoint x="1045" y="630" as="sourcePoint" />
          </mxGeometry>
        </mxCell>
        <mxCell id="8krXpAOAqkzqmPUhllHd-53" value="" style="swimlane;startSize=0;" vertex="1" parent="1">
          <mxGeometry x="20" y="90" width="1540" height="980" as="geometry" />
        </mxCell>
      </root>
    </mxGraphModel>
  </diagram>
</mxfile>
